# File created by Blade
# Date/Time:  Mon Sep 22 21:09:19 2014
# Frame Rate: 120.000 fps
#------------------------------------------------------
:FULLY-SPECIFIED
:DEGREES
2032
root -2.005611 32.814855 -11.231602 11.344915 30.340020 -22.683165
Spine -29.099787 -5.066082 15.080506
Head 9.683419 -18.964187 5.352274
LeftShoulder 1.392490 42.546131 29.382048
LeftArm 82.369221 28.748052 -42.690855
LeftForeArm -31.332199 0.000000 83.729636
LeftHand -31.655261 -0.000000 6.604828
LeftHandThumb1 -26.253704 0.000000 33.147579
RightShoulder -0.957217 -48.169434 -21.494197
RightArm 69.958799 -16.996261 45.421811
RightForeArm 69.030429 -0.000000 70.071162
RightHand 2.955944 -0.000000 27.707308
RightHandThumb1 -24.326973 -0.000000 -32.862282
LeftUpLeg -34.716040 5.123255 13.913388
LeftLeg 28.531067 -0.000000 -0.000000
LeftFoot -12.457582 10.613436 11.266743
LeftToeBase -5.698354 -0.000000 0.000000
RightUpLeg -152.872684 4.803601 12.556582
RightLeg 93.390700 -0.000000 -0.000000
RightFoot 41.737063 -20.432019 5.636441
RightToeBase 46.661700 -0.000000 -0.000000
2033
root -2.043946 32.865477 -11.193426 11.034156 30.455656 -23.737355
Spine -29.385612 -5.098080 15.946071
Head 9.918064 -18.974076 5.779806
LeftShoulder 1.584139 42.512905 29.775818
LeftArm 82.378483 28.654140 -42.865324
LeftForeArm -31.492863 -0.000000 83.581310
LeftHand -31.565896 0.000000 6.377982
LeftHandThumb1 -26.253704 0.000000 33.147579
RightShoulder -1.051568 -48.136990 -21.299728
RightArm 69.866817 -16.876842 45.479595
RightForeArm 69.085036 -0.000000 70.395231
RightHand 2.932665 -0.000000 27.429819
RightHandThumb1 -24.326973 -0.000000 -32.862282
LeftUpLeg -34.760660 5.706327 14.472547
LeftLeg 28.148130 -0.000000 -0.000000
LeftFoot -12.350286 11.360232 11.469479
LeftToeBase -5.516040 -0.000000 0.000000
RightUpLeg -153.013334 4.002670 12.778674
RightLeg 93.745397 -0.000000 -0.000000
RightFoot 41.880748 -20.136509 5.406945
RightToeBase 46.677005 -0.000000 -0.000000
2034
root -2.081887 32.915892 -11.149067 10.590736 30.572154 -24.810051
Spine -29.556415 -5.143259 16.777052
Head 10.165801 -19.049391 6.279136
LeftShoulder 1.845423 42.313995 30.206647
LeftArm 82.319137 28.620860 -42.976981
LeftForeArm -31.759524 0.000000 83.441014
LeftHand -31.220159 -0.000000 6.388211
LeftHandThumb1 -26.253704 0.000000 33.147579
RightShoulder -1.270091 -48.111739 -20.947746
RightArm 69.783878 -16.726017 45.427898
RightForeArm 69.185148 -0.000000 70.720413
RightHand 3.082185 -0.000000 27.005379
RightHandThumb1 -24.326973 -0.000000 -32.862282
LeftUpLeg -34.722076 6.273005 15.083786
LeftLeg 27.856796 -0.000000 -0.000000
LeftFoot -12.268804 12.028804 11.719041
LeftToeBase -5.302112 -0.000000 0.000000
RightUpLeg -153.042538 3.126852 13.033870
RightLeg 94.131797 -0.000000 -0.000000
RightFoot 42.087660 -19.722562 5.012326
RightToeBase 46.774386 -0.000000 -0.000000
2035
root -2.128252 32.970778 -11.114385 10.179187 30.739313 -26.044704
Spine -29.816871 -5.201459 17.786952
Head 10.346827 -19.091337 6.801432
LeftShoulder 2.035739 42.169653 30.559256
LeftArm 82.289063 28.525891 -43.153245
LeftForeArm -32.125783 -0.000000 83.270494
LeftHand -31.022888 -0.000000 6.070807
LeftHandThumb1 -26.253704 0.000000 33.147579
RightShoulder -1.480194 -48.116574 -20.605874
RightArm 69.725613 -16.532501 45.503671
RightForeArm 69.236084 -0.000000 71.004223
RightHand 3.054689 -0.000000 26.825623
RightHandThumb1 -24.326973 -0.000000 -32.862282
LeftUpLeg -34.939668 6.709188 15.940376
LeftLeg 27.769439 -0.000000 -0.000000
LeftFoot -12.204193 12.625026 11.632251
LeftToeBase -5.164345 -0.000000 0.000000
RightUpLeg -153.144937 2.201362 13.413960
RightLeg 94.466074 -0.000000 -0.000000
RightFoot 42.259127 -19.215841 4.672754
RightToeBase 46.785718 -0.000000 -0.000000
2036
root -2.172153 33.024689 -11.076409 9.638552 30.856762 -27.250849
Spine -29.922063 -5.272249 18.745227
Head 10.516982 -19.155923 7.328817
LeftShoulder 2.244060 42.030621 30.912506
LeftArm 82.258768 28.396772 -43.332845
LeftForeArm -32.644848 -0.000000 83.104006
LeftHand -30.845165 -0.000000 5.847740
LeftHandThumb1 -26.253704 0.000000 33.147579
RightShoulder -1.691568 -48.003288 -20.219844
RightArm 69.549340 -16.389260 45.673998
RightForeArm 69.102308 -0.000000 71.303080
RightHand 2.838794 -0.000000 26.636350
RightHandThumb1 -24.326973 -0.000000 -32.862282
LeftUpLeg -35.090399 7.208582 16.788871
LeftLeg 27.844389 -0.000000 -0.000000
LeftFoot -12.132896 12.977814 11.466667
LeftToeBase -5.249874 -0.000000 0.000000
RightUpLeg -153.098351 1.243880 13.769970
RightLeg 94.772549 -0.000000 -0.000000
RightFoot 42.468058 -18.702795 4.366170
RightToeBase 46.804084 -0.000000 -0.000000
2037
root -2.221770 33.078578 -11.042239 8.949911 31.000175 -28.558747
Spine -29.889059 -5.378223 19.759247
Head 10.558785 -19.257266 7.937646
LeftShoulder 2.439039 41.754466 31.264514
LeftArm 82.209717 28.309416 -43.484081
LeftForeArm -33.002021 -0.000000 82.868218
LeftHand -30.525684 -0.000000 5.307304
LeftHandThumb1 -26.253704 0.000000 33.147579
RightShoulder -1.883231 -47.986035 -19.856109
RightArm 69.407117 -16.153416 45.897830
RightForeArm 69.056192 -0.000000 71.593600
RightHand 2.698897 -0.000000 26.472407
RightHandThumb1 -24.326973 -0.000000 -32.862282
LeftUpLeg -35.291887 7.668621 17.790631
LeftLeg 28.164380 -0.000000 -0.000000
LeftFoot -12.204379 13.067759 11.042616
LeftToeBase -5.173156 -0.000000 0.000000
RightUpLeg -152.943114 0.170233 14.175452
RightLeg 95.043246 -0.000000 -0.000000
RightFoot 42.636418 -18.180962 4.233472
RightToeBase 46.832175 -0.000000 -0.000000
